<svg xmlns="http://www.w3.org/2000/svg" xmlns:xlink="http://www.w3.org/1999/xlink" version="1.1" width="256" height="256" viewBox="0 0 256 256" xml:space="preserve">

<defs>
</defs>
<g style="stroke: none; stroke-width: 0; stroke-dasharray: none; stroke-linecap: butt; stroke-linejoin: miter; stroke-miterlimit: 10; fill: none; fill-rule: nonzero; opacity: 1;" transform="translate(1.4065934065934016 1.4065934065934016) scale(2.81 2.81)" >
	<path d="M 82.236 90 H 7.764 C 3.476 90 0 86.524 0 82.236 V 7.764 C 0 3.476 3.476 0 7.764 0 h 74.473 C 86.524 0 90 3.476 90 7.764 v 74.473 C 90 86.524 86.524 90 82.236 90 z" style="stroke: none; stroke-width: 1; stroke-dasharray: none; stroke-linecap: butt; stroke-linejoin: miter; stroke-miterlimit: 10; fill: rgb(58,101,221); fill-rule: nonzero; opacity: 1;" transform=" matrix(1 0 0 1 0 0) " stroke-linecap="round" />
	<path d="M 55 63.832 c -0.271 -0.076 -0.583 -0.011 -0.791 0.169 c -5.808 5.155 -7.501 5.789 -7.959 5.822 c -0.058 0.004 -0.185 -0.05 -0.354 -0.217 c -0.212 -0.206 -0.327 -0.478 -0.352 -0.831 c -0.177 -2.453 1.489 -10.025 4.952 -22.507 c 2.908 -10.439 3.179 -12.555 3.129 -13.238 c -0.074 -1.019 -0.579 -1.81 -1.503 -2.354 c -0.879 -0.515 -2.084 -0.721 -3.579 -0.613 c -2.519 0.182 -5.518 1.241 -8.914 3.149 c -0.971 0.546 -1.982 1.199 -3.005 1.941 c -2.699 1.955 -4.179 4.929 -3.96 7.954 c 0.018 0.248 0.212 0.459 0.492 0.537 c 0.281 0.078 0.595 0.006 0.796 -0.182 c 2.677 -2.49 4.461 -4.016 5.303 -4.537 c 0.898 -0.555 1.7 -0.862 2.383 -0.911 c 0.252 -0.018 0.378 -0.027 0.409 0.391 c 0.04 0.557 -0.048 1.223 -0.262 1.975 c -5.07 17.486 -7.379 28.14 -7.059 32.569 c 0.109 1.506 0.692 2.676 1.733 3.48 c 1.054 0.816 2.431 1.17 4.091 1.05 c 1.809 -0.131 3.979 -0.928 6.634 -2.438 c 1.278 -0.727 2.932 -1.9 4.919 -3.489 c 2.343 -1.876 3.577 -4.493 3.382 -7.183 C 55.467 64.122 55.278 63.912 55 63.832 z" style="stroke: none; stroke-width: 1; stroke-dasharray: none; stroke-linecap: butt; stroke-linejoin: miter; stroke-miterlimit: 10; fill: rgb(255,255,255); fill-rule: nonzero; opacity: 1;" transform=" matrix(1 0 0 1 0 0) " stroke-linecap="round" />
	<circle cx="51.001" cy="18.851" r="6.351" style="stroke: none; stroke-width: 1; stroke-dasharray: none; stroke-linecap: butt; stroke-linejoin: miter; stroke-miterlimit: 10; fill: rgb(255,255,255); fill-rule: nonzero; opacity: 1;" transform="  matrix(1 0 0 1 0 0) "/>
</g>
</svg>